# xmcd CD database file
#
# Track frame offsets:
#	150
#	19955
#	41575
#	64478
#	87503
#	113117
#	133502
#	149819
#	170085
#	188216
#	207378
#	233179
#
# Disc length: 3386 seconds
#
# Revision: 0
# Processed by: cddbd v1.5.2PL0 Copyright (c) Steve Scherf et al.
# Submitted via: jetAudio 7
#
DISCID=bc0d380c
DTITLE=張帆  - Chinese Flutes
DYEAR=1900
DGENRE=장르 없음
TTITLE0=寂寞沙洲冷
TTITLE1=跟往事干杯
TTITLE2=愛我的人和我愛的人
TTITLE3=突然想愛你
TTITLE4=再回首
TTITLE5=勇氣
TTITLE6=我是眞的受傷了
TTITLE7=白月光
TTITLE8=Dear Friend
TTITLE9=野花
TTITLE10=夢中花
TTITLE11=爱我别走
EXTD=
EXTT0=
EXTT1=
EXTT2=
EXTT3=
EXTT4=
EXTT5=
EXTT6=
EXTT7=
EXTT8=
EXTT9=
EXTT10=
EXTT11=
PLAYORDER=
